<?xml version="1.0" encoding="UTF-8"?>
<svg id="Capa_1" xmlns="http://www.w3.org/2000/svg" version="1.1" viewBox="0 0 512 512">
  <!-- Generator: Adobe Illustrator 29.0.0, SVG Export Plug-In . SVG Version: 2.1.0 Build 186)  -->
  <defs>
    <style>
      .st0 {
        fill: #fff;
        stroke: #fff;
        stroke-miterlimit: 10;
      }
    </style>
  </defs>
  <path class="st0" d="M206.2,7c-11.9,3.1-18.2,7.2-29.1,18.1-10.8,10.9-16.1,14-27,16.2-25.1,4.7-42.7,22-47.5,46.6-2.5,12.4-5,16.9-15.9,27.6-13.2,13-17.7,21.5-19.9,36.9-1.3,8.4,0,18,3.5,28.1,3.4,9.8,3.2,18.2-.7,30.3-2.5,7.7-3,11.1-3.1,18.7,0,17.5,5.5,29.8,20,44.1,10.4,10.1,13.6,15.4,15.5,25,2.8,14.4,7,22.8,15.4,31.9,2.8,3,4.3,5.4,4,6.4-.4.8-14.7,25.9-32.1,55.9-24.2,42-31.4,55.1-31.4,57.6,0,3.9,3.4,8.1,7.4,9.1,1.8.4,11.5-1.8,31-7,15.6-4.2,28.5-7.4,28.8-7.3.2.3,3.7,13,7.8,28.3,6.8,25.4,7.7,28.2,10.5,30.8,2.5,2.4,3.6,2.6,7,2.3,2.2-.3,4.6-1.3,5.5-2.1.8-.9,17-28.3,35.9-61l34.3-59.4,6.9-1.8c3.8-1,8.8-2.5,11.2-3.3,6.3-2.3,17.3-2.1,24.8.6,3.4,1.2,8.6,2.6,11.6,3.2l5.3,1.1,34.4,59.5c18.9,32.7,35.1,60.2,35.9,61.1.9.8,3.3,1.8,5.5,2.1,3.3.4,4.4,0,7-2.3,2.7-2.5,3.7-5.4,10.5-30.8,4.1-15.3,7.6-28,7.8-28.3.3-.2,13.2,3,28.8,7.3,19.5,5.2,29.2,7.4,31,7,3.9-1,7.4-5.2,7.4-9.1s-7.4-16-32.2-59.2l-32.3-55.9,4.9-5c6.7-7.1,11.2-16.3,14.6-29.8,3.5-13.8,6.1-18.1,16.4-27.4,8.2-7.5,12.8-14.3,16.8-24.7,2.2-5.6,2.5-8.2,2.5-17.8s-.2-12.2-3.2-21.1c-2.7-8.4-3.1-10.8-2.7-16.7.2-3.8,1.7-10.4,3.1-14.7,5.1-14.8,4.1-30.5-2.6-44.4-2.4-4.9-5.7-9.1-13.3-16.9-11.7-11.9-14.2-16.2-16.9-28.7-5.3-25-21.8-41.5-46.8-46.8-12.5-2.6-16.9-5.2-28.7-16.9-7.7-7.6-12-11-16.9-13.3-13.9-6.8-29.6-7.7-44.4-2.6-12.2,4.1-19.6,4.3-30.9.6-12.4-4.2-24.8-4.9-35.1-2.1h-.3ZM236.4,28.2c6.4,2.4,8.9,2.6,19.1,2.7,10.7,0,12.4-.2,19.6-2.8,6.5-2.4,9.3-2.9,16.2-2.8,12.9,0,18,2.4,28.9,13.6,13.4,13.8,21.2,18.3,37.7,21.8,17.8,3.6,28,13.8,31.7,31.7,3.4,16.6,7.9,24.3,21.8,37.7,11.3,10.9,13.6,16,13.6,28.9s-.5,9.7-2.8,16.2c-2.5,7-2.8,9-2.8,19.1s.3,12.3,3.1,20.9c3.6,11.1,4,17.4,1.3,26-2.4,7.6-4.5,10.6-15.4,21.3-10.7,10.5-15.1,18.3-18.1,32.2-2.6,11.8-4.7,16.2-10.6,22.4-6.1,6.5-12.7,9.8-23.6,12-13.9,2.7-21.4,7-33,18.7-11.1,11.2-16.3,14.4-25.9,16.1-6.8,1.2-11.4.5-25.9-3.8-10.8-3.2-22.5-2.8-34.5,1.1-12.1,3.9-21.3,4.1-30.2.8-4.9-1.9-7.7-4.1-16.7-12.9-12.4-12.4-20.9-17.3-34.3-19.9-20.1-4-30.4-14.3-34.3-34.3-2.6-13.3-7.5-21.8-19.9-34.3-8.8-8.9-11.1-11.8-12.9-16.7-3.3-8.9-3.1-18.1.8-30.2,3.9-12,4.3-23.7,1.1-34.5-4.3-14.5-5-19.1-3.8-25.9,1.7-9.5,4.8-14.6,16.1-25.8,11.8-11.8,16.1-19.3,18.8-33.1,2.1-10.7,5.8-17.9,12.1-23.8,6.2-5.8,10.6-7.8,22.3-10.4,14.2-3.1,20.7-6.8,32.2-18.4,9.9-9.9,16-14,23.6-16,6-1.5,16.7-.4,24.8,2.5h-.1ZM150.1,347.8c11.3,2.3,16,5.1,26.7,16,8.3,8.5,10.7,10.3,18.3,13.9,6.5,3,8.7,4.6,8.3,5.7-.9,2.5-49.9,87.2-50.4,87.2s-2.9-8.9-5.8-19.9c-2.9-10.9-5.9-21.1-6.7-22.5s-2.8-3.4-4.6-4.2c-3-1.5-3.9-1.4-25.2,4.3-12.1,3.2-22.1,5.8-22.3,5.7,0-.2,7.7-14.1,17.5-31.1s21.3-36.9,25.6-44.3c6.2-10.7,8.2-13.4,9.5-12.9.9.4,4.9,1.4,8.9,2.2h.2ZM398.2,389.7c14,24.2,25.3,44.1,25.2,44.3-.2,0-10-2.4-21.9-5.6s-22.5-5.6-23.7-5.3c-5.6,1.4-6.9,3.9-12.7,26.3-3.1,11.7-5.9,21.3-6.2,21.3-.5,0-49.5-84.7-50.4-87.2-.5-1.1,1.6-2.5,7.4-5.2,6.8-3.2,9.5-5.3,18.2-14.1,11.4-11.5,15.5-13.9,28.1-16.5,4.3-.9,8-1.9,8.2-2.1.3-.2.9-.3,1.4,0,.5,0,12.3,20.1,26.3,44.2h.1Z"/>
  <path class="st0" d="M249.6,73c-1.7,1.4-2.7,3.5-3.1,6.2-.5,3.5,0,4.5,2.5,7.4,2.5,2.7,3.6,3.3,7.1,3.3s4.6-.6,7.1-3.3c2.5-2.8,2.9-3.8,2.5-7.4-.7-5.3-4.3-8.4-9.5-8.4s-4.7.8-6.4,2.3h-.2Z"/>
  <path class="st0" d="M199.4,83.9c-38,19.1-62.9,53.5-69.6,96.2-1.9,12.3-1.2,32.5,1.6,44.6,10.1,44.3,41.8,79.8,84.1,93.9,29.8,10,61.9,8.7,90.6-3.6,33.9-14.7,59.1-42.2,71-77.8,17-51.1-1.6-109.2-45.1-141.6-8.5-6.4-29-16.9-32.8-16.9s-4.1,1.1-6.1,2.8c-2.6,2.4-3.2,3.5-3.2,6.8,0,5.3,2.2,7.4,12,12.1,40.1,19.1,64.1,59.3,61.8,103.3-2.2,38.8-24.3,72.7-59,90.2-31.9,16-65.2,16-97,0-46.6-23.3-69.4-76.2-54.8-126.5,4.7-16.5,12.8-30.3,25.3-43.3,10.2-10.6,18.3-16.7,30.5-22.6,11.7-5.8,13.7-7.6,13.7-12.9s-3.4-8.5-8.4-9.3c-2.7-.5-5.3.4-14.3,4.9l-.3-.3Z"/>
  <path class="st0" d="M267.6,155.7l-22.3,22.3-11.1-10.8c-11.9-11.6-14.5-13-19.9-10.7-3.7,1.6-35.3,33.5-36.3,36.6-.4,1.3-.4,3.4,0,4.9.7,3,58,61.2,62.6,63.6,4.1,2.1,21-11.8,50.8-41.7,28-28,42.1-42.7,42.5-44.6.3-1.5,0-3.9-.5-5.5-.7-1.5-8.8-10.3-18.1-19.5-16.8-16.8-17-16.9-21.3-16.9h-4.3l-22.3,22.3h.2ZM302.3,164.5c4.2,4.2,7.6,8,7.6,8.6,0,1.3-63.9,65.2-65.2,65.2s-42.6-41.4-42.6-42.6,3.5-4.5,7.8-8.8l7.8-7.8,10.6,10.5c11.4,11.4,14.4,13.2,19.2,11.6,2-.6,11-8.8,24.6-22.5,11.9-11.9,21.8-21.6,22.1-21.6s3.9,3.4,8,7.5h0Z"/>
</svg>