<?xml version="1.0" encoding="UTF-8"?>
<svg id="Capa_1" xmlns="http://www.w3.org/2000/svg" version="1.1" viewBox="0 0 512 512">
  <!-- Generator: Adobe Illustrator 29.0.0, SVG Export Plug-In . SVG Version: 2.1.0 Build 186)  -->
  <defs>
    <style>
      .st0 {
        fill: #fff;
        stroke: #fff;
        stroke-miterlimit: 10;
        stroke-width: 6px;
      }
    </style>
  </defs>
  <path class="st0" d="M76.6,31.6c-1.4,1.4-1.6,8.6-1.6,64.5v62.9h-10.4c-11.3,0-14.5,1.2-19,7.3-2.1,2.8-2.1,3-2.4,114.8-.2,105.5-.3,111.9-2,111.9-3.1,0-8.3,4-9.8,7.5-1.9,4.7-1.9,22.3,0,27,.8,1.9,3,4.4,4.8,5.5,3.1,1.9,5,2,30.8,2h27.6l1.3,6.2c8,39.3,56.5,54.2,84.6,26,8-7.9,12.4-16.6,15-29.5l.5-2.7h133.6l1.6,6.9c4.9,20.9,20.5,35.7,41.5,39.3,20.4,3.4,42.3-7.4,52-25.7,2.8-5.4,3.8-8.4,5.8-17.7l.5-2.8h20.8c19,0,21-.2,24-2,4.8-3,6.2-7.2,6.2-19s-.5-11.3-1.4-13.5c-1.5-3.5-6.7-7.5-9.8-7.5s-1.8-2.3-1.8-35.1-.4-35.8-1-36.9c-.7-1.2-6.8-3.8-19.2-7.9l-18.3-6.1-5.9-21.8c-14.3-52.1-15.1-54.4-19-57.8-2-1.8-5.1-3.4-6.8-3.8-1.7-.3-24.1-.6-49.9-.6h-46.9v-25.3c0-24.2-.1-25.5-2.2-29.7-3.8-7.3-6.2-8.4-18.9-8.8l-10.9-.4v-62.2c0-54.6-.2-62.4-1.6-64.4l-1.5-2.2h-94.4c-84.4,0-94.5.2-95.9,1.6ZM260,173v133H85V40h175v133ZM75,240.7c0,65.3.1,71.8,1.7,73.5,1.5,1.7,5.8,1.8,95.9,1.8h94.3l1.5-2.2c1.4-2,1.6-10.6,1.6-73.5v-71.3h9.5c8.8,0,9.6.2,11,2.3,1.3,2.1,1.5,15,1.3,111.8l-.3,109.4-56.3.3-56.3.2-6.7-4c-9.7-5.9-15.8-7.5-27.7-7.4-11.2,0-18.4,2.1-26.5,7.8l-4.5,3.1-30.2.3-30.3.3v-110.2c0-101.2.1-110.4,1.7-112.1,1.3-1.5,3.2-1.8,11-1.8h9.3v71.7ZM399.2,234.7c1.4,1.7,4.8,11.6,4.8,14.2s-11,1.1-37.5,1.1h-37.5l-1.5,2.4c-1.4,2.1-1.5,6.4-1.3,31.4.2,22.2.6,29.4,1.6,30.4s12.2,1.4,51.5,1.8l50.2.5,14.8,5.4,14.7,5.3v10.8h-11.9c-11.2,0-12.1.1-14.9,2.5-5.4,4.5-6.7,16.5-2.5,23.6,2.8,4.6,6.7,5.9,18.7,5.9h10.6v23h-45.2l-5.7-3.5c-15.9-9.8-32.8-11-48.9-3.5-3.5,1.6-7.5,3.9-8.9,5-2.4,1.9-4,2-25.4,2h-22.9v-160h47.8c44.4,0,48,.1,49.4,1.7ZM413.2,281c3.1,11.3,6,21.5,6.3,22.7l.5,2.3h-84v-46l35.7.2,35.7.3,5.8,20.5ZM459,354v6h-10.4c-11.3,0-11.6-.2-11.6-6s.3-6,11.6-6h10.4v6ZM162.4,394.9c31.1,15.3,31.1,57.9-.1,73.3-6.3,3.1-7.4,3.3-16.8,3.3s-10.4-.2-17.7-3.8c-8.8-4.3-15.2-10.7-19.5-19.5-2.6-5.2-2.8-6.7-2.8-16.7s.3-11.5,2.7-16.5c5.3-10.8,13.4-18.1,24.4-22,8.9-3.1,21.2-2.4,29.8,1.9ZM396.5,394.4c11.6,5.3,18.8,13.5,22.5,25.4,2.5,8.1,2.5,15.3.1,23.1-3.8,12.1-11.1,20.4-22.7,25.8-5.2,2.4-7.1,2.8-15.9,2.8s-10.6-.3-16.5-3.1c-15.2-7.2-24-20.7-24-36.9s11.2-33.1,29.5-39.2c6.5-2.1,20-1.1,27,2.1ZM101.1,407.2c-1.6,2.9-3.1,6.2-3.4,7.3s-1.1,3.9-1.7,6.3l-1.1,4.2-27.2-.2-27.2-.3-.3-10c-.2-8.2,0-10.2,1.3-11.1,1.1-.8,10.7-1.2,32.1-1.3l30.5-.2-3,5.3ZM336,407.8c-1.6,3.1-3.6,8.2-4.4,11.2l-1.3,5.5-67.4.3-67.4.2-1.3-5.2c-.7-2.9-2.4-7.8-4-10.8-1.5-3-2.9-5.8-3-6.2-.2-.5,33.9-.8,75.7-.8h76.1c0,.1-3,5.8-3,5.8ZM470.3,403.2c1.5.8,1.7,2.2,1.5,11.1l-.3,10.2-20.6.3-20.7.2-.6-4.3c-.4-2.4-2.1-7.2-3.8-10.8-1.8-3.5-3.4-6.8-3.6-7.2-.6-1.1,45.9-.7,48.1.5Z"/>
  <path class="st0" d="M118.3,60c-2.7,1.1-3.8,4.3-2.3,7,1.1,2,1.8,2,56,2h55l1.5-2.4c1.9-2.8,1-5.4-2.2-6.7-3.1-1.2-105-1.1-108,.1Z"/>
  <path class="st0" d="M137.6,84.6c-2.1,2.1-2,4.7.2,6.7,1.7,1.5,5.5,1.7,34.5,1.7s32.8-.1,34.7-2,2.4-2.9.4-5.8q-1.5-2.2-34.9-2.2c-29,0-33.6.2-34.9,1.6Z"/>
  <path class="st0" d="M102.8,121.2c-2.4,2-2.8,4.4-1.2,6.7,1.4,1.9,2.4,2.1,13.3,2.1s14.1-.6,14.1-4.6-3.5-5.4-14.5-5.4-10.7.4-11.7,1.2Z"/>
  <path class="st0" d="M146.2,121.6c-2.6,1.8-2.8,4.6-.6,6.8s7.2,1.6,48.8,1.6,49.6,0,49.6-4.6-.7-5.4-50-5.4-45.8.2-47.8,1.6Z"/>
  <path class="st0" d="M101.6,151.1c-.8,1.2-1.2,2.9-.9,3.8,1.2,3.4,3.5,4.1,14.4,4.1s13.9-.9,13.9-5.4-1.7-4.6-14.1-4.6-11.9.2-13.3,2.1Z"/>
  <path class="st0" d="M145.6,150.6c-2.2,2.2-2,5,.6,6.8,2,1.4,8.2,1.6,48.5,1.6s49.3.1,49.3-5.4.3-4.6-49.6-4.6-47.4.2-48.8,1.6Z"/>
  <path class="st0" d="M103.4,178c-2.8,1.1-3.6,4.3-1.7,6.9,1.3,1.9,2.4,2.1,13.2,2.1s14.1-.6,14.1-4.6-3.5-5.4-14-5.3c-5.2,0-10.5.4-11.6.9Z"/>
  <path class="st0" d="M145.9,178.9c-2,1.6-2.2,2.3-1.4,4.7l1,2.9,47.9.3c34.5.1,48.3-.1,49.2-.9,2.1-1.7,1.7-5.6-.8-7.3-2-1.4-8.2-1.6-47.9-1.6s-45.8.1-48,1.9Z"/>
  <path class="st0" d="M214,206.9c-.5,1.1-1,3.7-1,5.8-.1,3.4-.5,4.1-4.5,6.5-7.5,4.5-10.7,12.5-8.5,20.6,2,7.8,10,14.1,17.8,14.2,2.4,0,4.2.9,6.4,3,2.6,2.7,3,3.6,2.5,6.7-.9,5.1-3.8,7.8-8.6,7.8s-7.6-2.3-9-8c-1.4-5.5-5-7.1-8.3-3.7-4.2,4.1,1,16,8.6,19.6,3.3,1.6,3.6,2,3.6,6.1s1.9,7.5,5,7.5,5-2.8,5-7.5.3-4.5,3.6-6.1c7.4-3.5,11.6-13.1,9.4-21.2-2-7.8-10-14.1-17.8-14.2-4.4,0-9.2-4.6-9.2-8.9s3.9-8.6,8.8-8.6,7.7,2.3,9.1,8c1.4,5.5,5,7.1,8.3,3.7,4.2-4.1-1-16-8.6-19.6-3.3-1.5-3.6-2.1-3.6-5.7,0-5.6-1.5-7.9-5-7.9s-3.3.7-4,1.9Z"/>
  <path class="st0" d="M155.2,246.2c-1.9,1.9-1.4,5.5,1,7.2,1.7,1.2,5,1.6,14.3,1.6s16.5-1.1,16.5-5.4-1.6-4.6-16.5-4.6-14.5.4-15.3,1.2Z"/>
  <path class="st0" d="M155,267.4c-1.8,2.2-.8,5.9,2,7.3s6.6,1.3,13.5,1.3c12,0,15.8-1.1,16.3-4.8.7-4.7-1-5.2-16.3-5.2s-14.5.3-15.5,1.4Z"/>
  <path class="st0" d="M328.2,349.2c-1.9,1.9-1.5,6.6.7,7.8,1.1.5,6.7,1,12.5,1,9.3,0,10.9-.3,12.6-2,2.5-2.5,2.5-4.2.2-6.3-1.5-1.4-4.1-1.7-13.3-1.7s-11.9.4-12.7,1.2Z"/>
  <path class="st0" d="M141,408.9c-18.2,3.7-24.8,26.5-11.3,39.3,4,3.8,9.7,5.9,16,5.9,16.7,0,27.1-17.1,19.9-32.8-2.8-6-8.8-10.9-14.5-11.9-2-.3-4.3-.7-5.1-.9-.8-.1-3.1.1-5,.4ZM152.8,420.8c3.1,2,5.2,6.3,5.2,10.7,0,7.5-5.2,12.8-12.6,12.8s-8.7-2.2-11.4-6.6c-7.1-11.5,7.3-24.4,18.8-16.9Z"/>
  <path class="st0" d="M376.3,409.1c-11.3,2-18.6,10.9-18.6,22.4s9.6,22.6,22.8,22.6,16.6-4.6,20.5-12.7c3.2-6.4,2.6-16.4-1.3-22.3-5.1-7.6-14.3-11.6-23.4-10ZM387.7,420.6c8.8,5.6,6.6,20.6-3.4,23.3-10.2,2.8-19.6-6.5-16.3-16.2,2.7-8.3,12.4-11.8,19.7-7.1Z"/>
</svg>