<?xml version="1.0" encoding="UTF-8"?>
<svg id="Capa_1" xmlns="http://www.w3.org/2000/svg" version="1.1" viewBox="0 0 512 512">
  <!-- Generator: Adobe Illustrator 29.0.0, SVG Export Plug-In . SVG Version: 2.1.0 Build 186)  -->
  <defs>
    <style>
      .st0 {
        fill: #fff;
        stroke: #fff;
        stroke-miterlimit: 10;
        stroke-width: 4px;
      }
    </style>
  </defs>
  <path class="st0" d="M48.8,95.4c-4,1.9-8.1,6.5-9.3,10.5-1.5,5.1-1.3,147.3.2,150,2.6,5.1,8.1,6.1,12,2.2l2.4-2.4V109.7h302.6v72.1c0,52.9.3,72.6,1.2,74.1,2.6,5.1,8.1,6.1,12,2.2,2.1-2,2.4-3.3,2.4-8.3v-5.9h48.3c29.3,0,49.6.4,51.7,1,5,1.4,9.6,4.7,13.3,9.6,5.3,7,5.1,7.1-10,7.1s-13.4,0-15.7,2.4c-2.4,2.3-2.4,2.9-2.4,14.3s1.1,18.6,7.3,24.9c5.7,5.8,10,7.3,19.5,7.3h6.5v35.3h-20.2l-3-6.2c-18.1-36.5-70.7-36.4-88.7,0-2.1,4-3.6,6.1-4.6,5.9-1.3-.3-1.6-4.7-2-31.8-.5-34.7-.4-33.9-6.6-35.2-2.6-.5-3.6,0-6.2,2.4l-2.9,2.9v61.9h-162.5l-2.1-4.6c-8.6-19.6-30.6-31.7-52.1-28.7-15.5,2.2-31,13.4-37.5,27.2l-2.9,6.1-22.5-.2-22.5-.3v-17.6l18.8-.3,18.8-.2,2-2.6c2.7-3.3,2.5-6.5-.3-9.8l-2.4-2.7H9.9l-2.4,2.7c-2.8,3.3-3,6.5-.3,9.9l2,2.5h29.3v10c0,7.6.5,11.1,1.9,14,4.2,9.2,7.6,10.2,34.9,10.3h21.5l1.3,7.5c6.6,41.3,57.8,56.6,85.8,25.7,5.6-6.2,11.2-17.4,11.9-24.1.3-2.5.7-5.7,1-7l.4-2.2h175.9l1.5,8c2.1,10.6,5.7,18.1,12.2,25.3,10.8,11.6,20.9,16,36.6,16s25.9-4.4,36.6-16c6.7-7.3,10.2-14.3,12.1-24.9l1.6-8.3,14.1-.3,14.1-.3,2.4-2.8,2.4-2.7-.3-47.7c-.3-46.3-.4-47.7-2.4-52.8-4.8-11.8-15.9-22-26.8-24.8-3.3-.9-5.3-2-5.9-3.3-.5-1.1-3.5-12.6-6.8-25.8l-5.9-23.8,3-2.5,3-2.6-.4-10.3c-.3-8.9-.8-11.1-3-15.6-3.2-6.1-8.9-12.1-14.1-14.7-7-3.5-13.2-4.1-44.4-4.1h-30.2l-.4-11.6c-.3-10.3-.6-11.9-2.6-14.8-1.3-1.8-4.1-4.1-6.4-5.1-3.8-1.8-9.9-1.9-157.8-1.8-126.3,0-154.3.2-156.7,1.3ZM439.7,145.1c4.2,2.4,8.1,7.6,8.8,11.9l.6,3.5h-76.7v-17.7l32.1.3c28.3.3,32.4.5,35.2,2ZM448.6,201.9c3.3,13.6,6.1,25.1,6.1,25.5s-18.5.8-41.1.8h-41.1v-50.9h70l6.2,24.7ZM491,286v8.8h-6.3c-5.4,0-6.6-.3-8.8-2.5-2.3-2.3-2.5-3.4-2.5-8.8v-6.3h17.6v8.8ZM154.5,328.6c8.5,1.4,18.4,9.2,22.9,17.9,4.4,8.5,4.4,21.2,0,29.7-12.9,25.6-48.3,25.6-60.8,0-2.9-5.9-3.2-7.3-3.2-14.9,0-7.1.5-9.2,2.7-13.9,4.8-9.9,14.8-17.6,25.1-19.4,4.5-.8,5.9-.7,13.3.5ZM428.8,328.2c15.1,2.7,26.5,14.8,28.4,29.8,1.3,10.2-4.2,23.5-12.2,29.9-19.8,15.7-48.2,6-54.5-18.5-4.7-18.5,8.1-37.9,27.2-41.1,2.8-.5,5.2-.9,5.3-1,0,0,2.6.4,5.8,1Z"/>
  <path class="st0" d="M138.6,347.6c-11.9,7.5-9.3,25.4,4.5,29.6,7.8,2.4,17.9-3.6,19.4-11.5,2.1-11.3-3.8-19.1-14.8-19.8-4.6-.2-6.6,0-9.1,1.7Z"/>
  <path class="st0" d="M415.6,347.4c-9.7,4.8-11.1,19.9-2.4,26.6,6.8,5.3,15.5,4.8,21.5-1.3,5.6-5.6,6.3-14.3,1.5-21-4-5.8-13.6-7.8-20.6-4.4Z"/>
  <path class="st0" d="M233.2,205.4l-36,36-18.9-18.8c-11.9-11.9-19.8-19-21.5-19.5-5.5-1.3-10.7,5.1-8.5,10.4.6,1.5,11.2,12.6,23.4,24.9,20.3,20.2,22.6,22.1,25.7,22.1s6.4-3,43.2-40c36.4-36.3,40-40.2,40-43.1,0-4.3-3.7-8-7.9-8s-6.8,3.5-39.3,35.9Z"/>
  <path class="st0" d="M24.7,281c-3.5,3.5-3.6,7.1-.4,10.4l2.4,2.4h52.9c29.1,0,53.6-.3,54.5-.6,1.8-.7,4.4-5.4,4.4-7.7s-1.3-2.9-2.8-4.5l-2.8-2.8H27.5l-2.8,2.8Z"/>
  <path class="st0" d="M211.1,312.4c-3.3,1.4-5.5,5.3-4.7,8.8,1.4,6.1-1.3,5.9,66.7,5.9h62l2-2.5c2.7-3.4,2.5-6.6-.3-9.9l-2.4-2.7-60.6-.2c-33.8,0-61.5.2-62.7.7Z"/>
</svg>