<?xml version="1.0" encoding="UTF-8"?>
<svg id="Capa_1" xmlns="http://www.w3.org/2000/svg" version="1.1" viewBox="0 0 512 512">
  <!-- Generator: Adobe Illustrator 29.0.0, SVG Export Plug-In . SVG Version: 2.1.0 Build 186)  -->
  <defs>
    <style>
      .st0 {
        fill: #3d5a98;
      }

      .st1 {
        fill: #fff;
      }
    </style>
  </defs>
  <path class="st0" d="M440.1,501.5H71.9c-33.9,0-61.4-27.5-61.4-61.4V71.9c0-33.9,27.5-61.4,61.4-61.4h368.2c33.9,0,61.4,27.5,61.4,61.4v368.2c0,33.9-27.5,61.4-61.4,61.4"/>
  <path class="st1" d="M349.3,501.5v-190.1h63.8l9.6-74.1h-73.4v-47.3c0-21.5,6-36.1,36.7-36.1h39.2v-66.3c-6.8-.9-30.1-2.9-57.2-2.9-56.6,0-95.3,34.5-95.3,98v54.6h-64v74.1h64v190.1h76.5Z"/>
</svg>