<?xml version="1.0" encoding="UTF-8"?>
<svg id="Capa_1" xmlns="http://www.w3.org/2000/svg" version="1.1" viewBox="0 0 512 512">
  <!-- Generator: Adobe Illustrator 29.0.0, SVG Export Plug-In . SVG Version: 2.1.0 Build 186)  -->
  <defs>
    <style>
      .st0 {
        fill: #fff;
      }
    </style>
  </defs>
  <path class="st0" d="M336.1,17.8c-1.9.9-4.8,3.4-6.5,5.5l-3.1,3.9-.5,18.3-.5,18.4-32-15.6c-30.6-15-32.3-15.7-39-16q-7-.4-22.5,7.2c-8.5,4.2-54.6,26.8-102.5,50.2-47.8,23.4-88.2,43.7-89.7,45.1-3.6,3.3-4.5,8-2.3,12.5,1.9,4.1,7.4,7.2,11.4,6.4,1.4-.3,48.1-22.9,103.7-50.1l101.2-49.6,39.8,19.5c43.7,21.3,45.5,21.9,51.1,17.1l2.8-2.4.5-24.9.5-24.8,17.2-.3,17.2-.2.3,37.9c.3,36.5.4,38.1,2.4,40.7,2.8,3.8,70.1,37.5,76.2,38.2,7.4.8,12.2-3.6,12.2-11.2s-2.7-8.2-36.4-24.7l-31.6-15.4v-36.7c0-23.4-.4-37.7-1.1-39.5-.5-1.5-2.2-4.1-3.7-5.7-5-5.3-6.8-5.6-35.4-5.6s-26.7.2-29.7,1.8Z"/>
  <path class="st0" d="M163,121c-16.7,2.1-33.1,13.4-41,28.1-3.6,6.8-7,19.3-7,25.8.1,16.6,8.7,34,21.8,44,10.5,8.1,20.2,11.3,34.2,11.2,15.2,0,28.7-5.9,39.3-17.3,19.7-21,19.7-53.5.1-74.8-11.6-12.5-30.3-19.2-47.4-17ZM184.5,145.1c6.7,3.3,13.1,9.8,16.3,16.7,2.2,4.7,2.6,7.1,2.6,13.7,0,12.2-4.8,21.3-14.7,27.8-17,11.1-39.3,5.2-48.4-12.7-8.9-17.6-1.1-38.4,17.3-46.2,7.9-3.3,19.4-3,26.9.7Z"/>
  <path class="st0" d="M347.2,193.5c-13.3,3-27.3,13.9-33.4,25.9-4.2,8.3-5.8,14.7-5.8,23.7,0,36.5,38.8,61.1,71.9,45.4,13.5-6.5,25-20.9,28-35.3,7.4-35.5-25.4-67.8-60.7-59.7ZM371.6,216.8c18,9.3,21.3,34.2,6.3,47.6-14.6,13.2-37.3,8.6-46.1-9.3-3.1-6.3-3.2-17.6-.2-24.2,6.9-14.9,25.7-21.5,40-14.1Z"/>
  <path class="st0" d="M118.9,243.5c-14.4,2.9-26.6,9.5-37.3,20.1-7.6,7.5-12.3,14.6-16.3,24.4-4.8,12.1-5.3,16.7-5.3,57.5s0,38,2.4,43c2.8,6,5.6,8.7,11.6,11.4,4.3,2,6.4,2.1,48.8,2.1s49,0,51.8-6.5c1.9-4.5.8-9-2.8-12l-3-2.5h-48.7l-.3-34.4-.3-34.4-2.4-2.6c-3.4-3.6-8.8-3.6-12.2,0l-2.4,2.6-.3,34.4-.3,34.5-10.2-.3-10.2-.3v-37c0-32.6.2-37.7,1.8-42.7,6-19.5,23.3-34.3,43.3-36.9,11.5-1.5,87.5-.7,92.9,1,2.2.7,7.5,3,11.7,5.2,9.7,4.9,12,4.9,16.5.4s3.5-3.9,3-8.1c-.6-5.8-2.2-7.5-12.1-12.3-15.2-7.5-14.5-7.5-66.6-7.7-36-.2-48,0-53.1,1.1Z"/>
  <path class="st0" d="M248,282c-25.9,5.5-40.6,35.1-29.3,59.3,14.3,30.5,56,33.2,74.3,4.8,6.1-9.6,8-23.7,4.6-35.1-3.4-11.5-14-22.7-25.3-27-6.6-2.5-17.6-3.4-24.3-2ZM266.8,304.9c13.2,6.8,15.2,24.9,3.9,34.8-7.9,6.9-18.9,6.9-27.3,0-11.1-9.2-9.4-27.9,3.1-34.4,7.1-3.8,13.5-3.9,20.3-.4Z"/>
  <path class="st0" d="M314.2,305.5c-3.9,1.7-6.6,7.3-5.7,11.6.4,1.6,2,4,3.7,5.4l3,2.5h37.6c20.7,0,40.9.5,44.7,1,19.4,2.8,34.6,18.4,37.5,38.5.5,3.8,1,19.9,1,35.7v28.8h-13v-28.9c0-18.9-.4-29.9-1.1-32.1-1.5-4.1-6.4-6.4-10.6-5-5.6,2-5.8,2.8-6.1,35.7l-.3,30.3h-24.5c-27.1,0-29,.4-32,6.1-2.2,4.3-1.1,9.1,2.7,12.4l3.1,2.6,44.3-.3,44.3-.3,4.4-3c2.8-2,5.3-4.9,7.1-8.5l2.8-5.5-.3-37.5-.3-37.5-2.8-8c-7.2-20.5-22.2-35.5-42-42.2l-8.2-2.8-43-.2c-35.9-.2-43.5,0-46.3,1.2Z"/>
  <path class="st0" d="M220.8,375.1c-20.1,2.9-37.6,18.7-44.3,39.9-2.3,7.2-3.4,55.2-1.5,64.4,1.6,7.9,7.4,13.9,14.9,15.5,7.2,1.5,125,1.5,132.2,0,7.2-1.6,12.4-6.4,14.5-13.6,1.3-4.6,1.5-10,1.2-33.6-.5-30.9-.9-33.3-7.1-45.2-7.1-13.3-23.5-25-38.7-27.4-7.6-1.3-62.9-1.2-71.2,0ZM297.2,398.8c10,4.9,16.8,14.6,18.8,26.3.5,3.5,1,16,1,27.6v21.3h-7v-23.4c0-23,0-23.5-2.3-26.1-1.7-2.1-3.2-2.7-6.2-2.7s-4.5.6-6.2,2.7c-2.3,2.6-2.3,3.1-2.3,26.1v23.4h-70v-21.9c0-24.2-.6-27.6-5.2-29.5-3.9-1.7-7.1-1-10,2.1-2.3,2.4-2.3,2.9-2.6,25.9l-.4,23.4h-8.8v-24.6c0-16.3.4-26.1,1.2-28.8,2.9-10,11-19,20.2-22.6,4.8-1.8,7.4-1.9,40.1-1.7,34.3.2,35.1.2,39.7,2.5Z"/>
</svg>