<?xml version="1.0" encoding="UTF-8"?>
<svg id="Capa_1" xmlns="http://www.w3.org/2000/svg" version="1.1" xmlns:xlink="http://www.w3.org/1999/xlink" viewBox="0 0 512 512">
  <!-- Generator: Adobe Illustrator 29.0.0, SVG Export Plug-In . SVG Version: 2.1.0 Build 186)  -->
  <defs>
    <style>
      .st0 {
        fill: #fff;
      }

      .st1 {
        fill: url(#linear-gradient);
      }
    </style>
    <linearGradient id="linear-gradient" x1="99.5" y1="527" x2="412.5" y2="-15" gradientUnits="userSpaceOnUse">
      <stop offset="0" stop-color="#ffd676"/>
      <stop offset=".2" stop-color="#f2a454"/>
      <stop offset=".4" stop-color="#f05c3c"/>
      <stop offset=".7" stop-color="#c22f86"/>
      <stop offset="1" stop-color="#6665ad"/>
      <stop offset="1" stop-color="#5c6cb2"/>
      <stop offset="1" stop-color="#5c6cb2"/>
    </linearGradient>
  </defs>
  <path class="st1" d="M440.1,501.5H71.9c-33.9,0-61.4-27.5-61.4-61.4V71.9c0-33.9,27.5-61.4,61.4-61.4h368.2c33.9,0,61.4,27.5,61.4,61.4v368.2c0,33.9-27.5,61.4-61.4,61.4"/>
  <g>
    <path class="st0" d="M256,107.3c48.4,0,54.2.2,73.3,1.1,17.7.8,27.3,3.8,33.7,6.2,8.5,3.3,14.5,7.2,20.9,13.6,6.3,6.3,10.3,12.4,13.6,20.9,2.5,6.4,5.4,16,6.2,33.7.9,19.1,1.1,24.9,1.1,73.3s-.2,54.2-1.1,73.3c-.8,17.7-3.8,27.3-6.2,33.7-3.3,8.5-7.2,14.5-13.6,20.9-6.4,6.4-12.4,10.3-20.9,13.6-6.4,2.5-16,5.4-33.7,6.2-19.1.9-24.9,1.1-73.3,1.1s-54.2-.2-73.3-1.1c-17.7-.8-27.3-3.8-33.7-6.2-8.5-3.3-14.5-7.2-20.9-13.6-6.4-6.4-10.3-12.4-13.6-20.9-2.5-6.4-5.4-16-6.2-33.7-.9-19.1-1.1-24.9-1.1-73.3s.2-54.2,1.1-73.3c.8-17.7,3.8-27.3,6.2-33.7,3.3-8.5,7.2-14.5,13.6-20.9,6.4-6.4,12.4-10.3,20.9-13.6,6.4-2.5,16-5.4,33.7-6.2,19.1-.9,24.9-1.1,73.3-1.1M256,74.6c-49.3,0-55.5.2-74.8,1.1-19.3.9-32.5,3.9-44,8.4-11.9,4.6-22.1,10.8-32.1,20.9-10.1,10.1-16.3,20.2-20.9,32.1-4.5,11.5-7.6,24.7-8.4,44-.9,19.4-1.1,25.5-1.1,74.8s.2,55.5,1.1,74.8c.9,19.3,4,32.5,8.4,44,4.6,11.9,10.8,22.1,20.9,32.1,10.1,10.1,20.2,16.3,32.1,20.9,11.5,4.5,24.7,7.6,44,8.4,19.4.9,25.5,1.1,74.8,1.1s55.5-.2,74.8-1.1c19.3-.9,32.5-3.9,44-8.4,11.9-4.6,22.1-10.8,32.1-20.9,10.1-10.1,16.3-20.2,20.9-32.1,4.5-11.5,7.6-24.7,8.4-44,.9-19.4,1.1-25.5,1.1-74.8s-.2-55.5-1.1-74.8c-.9-19.3-4-32.5-8.4-44-4.6-11.9-10.8-22.1-20.9-32.1-10.1-10.1-20.2-16.3-32.1-20.9-11.5-4.5-24.7-7.6-44-8.4-19.3-.9-25.5-1.1-74.8-1.1"/>
    <path class="st0" d="M256,162.8c-51.5,0-93.2,41.7-93.2,93.2s41.7,93.2,93.2,93.2,93.2-41.7,93.2-93.2-41.7-93.2-93.2-93.2M256,316.5c-33.4,0-60.5-27.1-60.5-60.5s27.1-60.5,60.5-60.5,60.5,27.1,60.5,60.5-27.1,60.5-60.5,60.5"/>
    <path class="st0" d="M374.6,159.1c0,12-9.7,21.8-21.8,21.8s-21.8-9.7-21.8-21.8,9.8-21.8,21.8-21.8,21.8,9.7,21.8,21.8"/>
  </g>
</svg>